<svg width="24" height="24" viewBox="0 0 24 24" fill="none" xmlns="http://www.w3.org/2000/svg">
<path fill-rule="evenodd" clip-rule="evenodd" d="M2.2568 13.7157C2.19216 13.3333 2.14987 12.947 2.13032 12.5587C2.11644 12.2829 2.34161 12.0589 2.61775 12.0589H8.00829C8.17298 12.0589 8.30525 12.1926 8.31832 12.3568C8.32075 12.3873 8.32884 12.4168 8.33853 12.4458C8.35054 12.4817 8.35931 12.5191 8.36448 12.5574C8.44011 13.1179 8.64263 13.6561 8.95927 14.13C9.3689 14.7431 9.95112 15.2209 10.6323 15.503C11.3135 15.7852 12.0631 15.859 12.7862 15.7152C13.5094 15.5713 14.1736 15.2163 14.695 14.6949C15.2163 14.1736 15.5714 13.5093 15.7152 12.7862C15.8591 12.063 15.7852 11.3135 15.5031 10.6323C15.2209 9.95109 14.7431 9.36887 14.13 8.95924C13.6562 8.6426 13.1179 8.44008 12.5574 8.36445C12.5313 8.36093 12.5056 8.35573 12.4805 8.34897C12.4555 8.34223 12.4303 8.33623 12.4045 8.33383C12.2142 8.31618 12.0589 8.16289 12.0589 7.97176V2.61776C12.0589 2.34162 12.2829 2.11645 12.5587 2.13033C12.947 2.14988 13.3333 2.19216 13.7157 2.2568C14.4508 2.38104 15.1712 2.58786 15.8632 2.87448C17.0693 3.37407 18.1652 4.10633 19.0883 5.02945C20.0114 5.95257 20.7437 7.04847 21.2433 8.25458C21.5299 8.94654 21.7367 9.667 21.861 10.402C21.9256 10.7844 21.9679 11.1708 21.9874 11.5591C22.0013 11.8349 21.7762 12.0589 21.5 12.0589L17.9437 12.0589C17.6676 12.0589 17.4461 12.2832 17.4205 12.5582C17.4033 12.7426 17.3766 12.9266 17.3402 13.1094C17.1325 14.154 16.6196 15.1134 15.8665 15.8665C15.1135 16.6196 14.154 17.1324 13.1094 17.3402C12.9266 17.3766 12.7426 17.4033 12.5582 17.4205C12.2832 17.4461 12.0589 17.6675 12.0589 17.9437L12.0589 21.5C12.0589 21.7761 11.8349 22.0013 11.5591 21.9874C11.1708 21.9679 10.7844 21.9256 10.402 21.861C9.667 21.7367 8.94654 21.5299 8.25458 21.2433C7.04846 20.7437 5.95256 20.0114 5.02944 19.0883C4.10632 18.1652 3.37407 17.0693 2.87448 15.8632C2.58786 15.1712 2.38104 14.4508 2.2568 13.7157ZM4.55436 13.7157C4.23803 13.7157 4.00053 14.0062 4.08651 14.3107C4.1745 14.6222 4.28084 14.9289 4.40521 15.2291C4.82154 16.2342 5.43175 17.1475 6.20102 17.9167C6.97028 18.686 7.88353 19.2962 8.88863 19.7125C9.18889 19.8369 9.49559 19.9433 9.8071 20.0312C10.1115 20.1172 10.402 19.8797 10.402 19.5634L10.402 17.5725C10.402 17.3554 10.261 17.1652 10.0592 17.0849C10.0357 17.0756 10.0122 17.0661 9.98885 17.0564C9.33257 16.7845 8.73625 16.3861 8.23396 15.8838C7.73166 15.3815 7.33322 14.7852 7.06138 14.1289C7.05169 14.1055 7.04217 14.0821 7.03281 14.0586C6.95254 13.8568 6.76239 13.7157 6.54525 13.7157H4.55436ZM19.5634 10.402C19.8797 10.402 20.1172 10.1115 20.0313 9.8071C19.9433 9.4956 19.8369 9.18889 19.7126 8.88863C19.2962 7.88354 18.686 6.97028 17.9167 6.20102C17.1475 5.43175 16.2342 4.82154 15.2291 4.40521C14.9289 4.28084 14.6222 4.1745 14.3107 4.08652C14.0062 4.00053 13.7157 4.23803 13.7157 4.55436V6.55744C13.7157 6.77446 13.8567 6.96452 14.0582 7.04491C14.0804 7.05374 14.1025 7.06273 14.1246 7.07187C14.7795 7.34314 15.3745 7.74075 15.8758 8.24199C16.377 8.74323 16.7746 9.33829 17.0459 9.9932C17.055 10.0153 17.064 10.0374 17.0729 10.0595C17.1532 10.2611 17.3433 10.402 17.5603 10.402L19.5634 10.402Z" fill="#A8A29E"/>
<path d="M18.0163 17.8155C19.1159 16.6775 19.8641 15.2511 20.1776 13.7071C20.2325 13.4365 20.4839 13.2456 20.7573 13.2841L21.4078 13.3757C21.6812 13.4142 21.8729 13.6675 21.8207 13.9387C21.4567 15.8291 20.5506 17.5772 19.2078 18.9668C17.8651 20.3564 16.1491 21.3219 14.2722 21.7505C14.003 21.812 13.7433 21.629 13.6955 21.3571L13.5816 20.7102C13.5337 20.4382 13.7159 20.1804 13.9845 20.1163C15.5168 19.7501 16.9168 18.9534 18.0163 17.8155Z" fill="#A8A29E"/>
<path d="M12.201 12.201C12.5245 11.8775 12.5245 11.353 12.201 11.0294L3.41421 2.24264C3.09069 1.91912 2.56616 1.91912 2.24264 2.24264C1.91912 2.56616 1.91912 3.09069 2.24264 3.41421L11.0294 12.201C11.353 12.5245 11.8775 12.5245 12.201 12.201Z" fill="#A8A29E"/>
<path d="M7.80765 10.1508C8.13117 10.4743 8.13117 10.9988 7.80765 11.3223C7.48413 11.6459 6.9596 11.6459 6.63608 11.3223L3.12136 7.80762C2.79784 7.4841 2.79783 6.95957 3.12136 6.63605C3.44488 6.31253 3.96941 6.31253 4.29293 6.63605L7.80765 10.1508Z" fill="#A8A29E"/>
<path d="M11.3223 7.8076C11.6459 7.48408 11.6459 6.95954 11.3223 6.63602L7.80762 3.1213C7.4841 2.79778 6.95957 2.79778 6.63605 3.1213C6.31253 3.44483 6.31253 3.96936 6.63605 4.29288L10.1508 7.8076C10.4743 8.13112 10.9988 8.13112 11.3223 7.8076Z" fill="#A8A29E"/>
</svg>
